<svg xmlns="http://www.w3.org/2000/svg" width="920" height="1160" viewBox="0 0 920 1160">
  <rect x="0" y="0" width="920" height="1160" fill="#f7f7f7" />
  <text x="36" y="48" font-family="Arial, sans-serif" font-size="30" font-weight="700" fill="#111111">AISC 358 Chapter 6 - BSEEP_4ES Geometry Audit</text>
  <text x="36" y="95" font-family="Arial, sans-serif" font-size="18" fill="#111111">bp = 260.0 mm</text><text x="36" y="125" font-family="Arial, sans-serif" font-size="18" fill="#111111">g = 135.0 mm</text><text x="36" y="155" font-family="Arial, sans-serif" font-size="18" fill="#111111">de = 55.0 mm</text><text x="36" y="185" font-family="Arial, sans-serif" font-size="18" fill="#111111">pb = 90.0 mm</text><text x="36" y="215" font-family="Arial, sans-serif" font-size="18" fill="#111111">pso (geometry.pfo) = 55.0 mm</text><text x="36" y="245" font-family="Arial, sans-serif" font-size="18" fill="#111111">pfi = 55.0 mm</text><text x="36" y="275" font-family="Arial, sans-serif" font-size="18" fill="#111111">tcp = 15.9 mm</text><text x="36" y="305" font-family="Arial, sans-serif" font-size="18" fill="#111111">psi = pfi + tfb - tcp = 56.4 mm</text><text x="36" y="335" font-family="Arial, sans-serif" font-size="18" fill="#111111">lc_end_plate = 50.8 mm</text><text x="36" y="365" font-family="Arial, sans-serif" font-size="18" fill="#111111">lc_column_flange = 50.8 mm</text><text x="36" y="395" font-family="Arial, sans-serif" font-size="18" fill="#111111">column_end_distance = 240.0 mm</text><text x="36" y="425" font-family="Arial, sans-serif" font-size="18" fill="#111111">h1 = 598.4 mm</text><text x="36" y="455" font-family="Arial, sans-serif" font-size="18" fill="#111111">h2 = 508.4 mm</text><text x="36" y="485" font-family="Arial, sans-serif" font-size="18" fill="#111111">h3 = 379.7 mm</text><text x="36" y="515" font-family="Arial, sans-serif" font-size="18" fill="#111111">h4 = 289.7 mm</text>

  <rect x="340.0" y="160.0" width="240.0" height="860.0" fill="#ececec" stroke="#2c2c2c" stroke-width="2.2" />
  <rect x="362.0" y="412.2" width="196.0" height="21.8" fill="#d5d5d5" stroke="#2f2f2f" stroke-width="1.6" />
  <rect x="362.0" y="973.0" width="196.0" height="21.8" fill="#d5d5d5" stroke="#2f2f2f" stroke-width="1.6" />
  <rect x="453.2" y="434.0" width="13.6" height="539.0" fill="#d5d5d5" stroke="#2f2f2f" stroke-width="1.6" />
  <line x1="358.0" y1="983.9" x2="562.0" y2="983.9" stroke="#6a6a6a" stroke-width="1.2" stroke-dasharray="5 4" />
  <circle cx="397.7" cy="229.4" r="8.5" fill="#111111" /><circle cx="522.3" cy="229.4" r="8.5" fill="#111111" /><circle cx="397.7" cy="342.8" r="8.5" fill="#111111" /><circle cx="522.3" cy="342.8" r="8.5" fill="#111111" /><circle cx="397.7" cy="837.2" r="8.5" fill="#111111" /><circle cx="522.3" cy="837.2" r="8.5" fill="#111111" /><circle cx="397.7" cy="950.6" r="8.5" fill="#111111" /><circle cx="522.3" cy="950.6" r="8.5" fill="#111111" />

  <line x1="340.0" y1="96.0" x2="580.0" y2="96.0" stroke="#111111" stroke-width="1.6" /><line x1="340.0" y1="88.0" x2="340.0" y2="104.0" stroke="#111111" stroke-width="1.4" /><line x1="580.0" y1="88.0" x2="580.0" y2="104.0" stroke="#111111" stroke-width="1.4" /><text x="432.0" y="86.0" font-family="Arial, sans-serif" font-size="20" fill="#111111">bp = 260.0 mm</text>
  <line x1="397.7" y1="136.0" x2="522.3" y2="136.0" stroke="#111111" stroke-width="1.6" /><line x1="397.7" y1="128.0" x2="397.7" y2="144.0" stroke="#111111" stroke-width="1.4" /><line x1="522.3" y1="128.0" x2="522.3" y2="144.0" stroke="#111111" stroke-width="1.4" /><text x="432.0" y="126.0" font-family="Arial, sans-serif" font-size="20" fill="#111111">g = 135.0 mm</text>
  <line x1="340.0" y1="205.4" x2="397.7" y2="205.4" stroke="#111111" stroke-width="1.6" /><line x1="340.0" y1="197.4" x2="340.0" y2="213.4" stroke="#111111" stroke-width="1.4" /><line x1="397.7" y1="197.4" x2="397.7" y2="213.4" stroke="#111111" stroke-width="1.4" /><text x="340.8" y="195.4" font-family="Arial, sans-serif" font-size="20" fill="#111111">lc_ep = 50.8 mm</text>
  <line x1="522.3" y1="253.4" x2="580.0" y2="253.4" stroke="#111111" stroke-width="1.6" /><line x1="522.3" y1="245.4" x2="522.3" y2="261.4" stroke="#111111" stroke-width="1.4" /><line x1="580.0" y1="245.4" x2="580.0" y2="261.4" stroke="#111111" stroke-width="1.4" /><text x="523.2" y="243.4" font-family="Arial, sans-serif" font-size="20" fill="#111111">lc_cf = 50.8 mm</text>

  <line x1="652.0" y1="160.0" x2="652.0" y2="229.4" stroke="#111111" stroke-width="1.6" /><line x1="645.0" y1="160.0" x2="659.0" y2="160.0" stroke="#111111" stroke-width="1.4" /><line x1="645.0" y1="229.4" x2="659.0" y2="229.4" stroke="#111111" stroke-width="1.4" /><text x="662.0" y="199.7" font-family="Arial, sans-serif" font-size="20" fill="#111111">de = 55.0 mm</text>
  <line x1="652.0" y1="229.4" x2="652.0" y2="342.8" stroke="#111111" stroke-width="1.6" /><line x1="645.0" y1="229.4" x2="659.0" y2="229.4" stroke="#111111" stroke-width="1.4" /><line x1="645.0" y1="342.8" x2="659.0" y2="342.8" stroke="#111111" stroke-width="1.4" /><text x="662.0" y="291.1" font-family="Arial, sans-serif" font-size="20" fill="#111111">pb = 90.0 mm</text>
  <line x1="652.0" y1="342.8" x2="652.0" y2="412.2" stroke="#111111" stroke-width="1.6" /><line x1="645.0" y1="342.8" x2="659.0" y2="342.8" stroke="#111111" stroke-width="1.4" /><line x1="645.0" y1="412.2" x2="659.0" y2="412.2" stroke="#111111" stroke-width="1.4" /><text x="662.0" y="382.5" font-family="Arial, sans-serif" font-size="20" fill="#111111">pso = 55.0 mm</text>
  <line x1="652.0" y1="434.0" x2="652.0" y2="505.1" stroke="#111111" stroke-width="1.6" /><line x1="645.0" y1="434.0" x2="659.0" y2="434.0" stroke="#111111" stroke-width="1.4" /><line x1="645.0" y1="505.1" x2="659.0" y2="505.1" stroke="#111111" stroke-width="1.4" /><text x="662.0" y="474.6" font-family="Arial, sans-serif" font-size="20" fill="#111111">psi = 56.4 mm</text>
  <line x1="652.0" y1="505.1" x2="652.0" y2="618.6" stroke="#111111" stroke-width="1.6" /><line x1="645.0" y1="505.1" x2="659.0" y2="505.1" stroke="#111111" stroke-width="1.4" /><line x1="645.0" y1="618.6" x2="659.0" y2="618.6" stroke="#111111" stroke-width="1.4" /><text x="662.0" y="566.9" font-family="Arial, sans-serif" font-size="20" fill="#111111">pb = 90.0 mm</text>

  <line x1="268.0" y1="229.4" x2="268.0" y2="983.9" stroke="#111111" stroke-width="1.6" /><line x1="261.0" y1="229.4" x2="275.0" y2="229.4" stroke="#111111" stroke-width="1.4" /><line x1="261.0" y1="983.9" x2="275.0" y2="983.9" stroke="#111111" stroke-width="1.4" /><text x="63.0" y="611.6" font-family="Arial, sans-serif" font-size="20" fill="#111111">h1 = 598.4 mm</text>
  <line x1="234.0" y1="342.8" x2="234.0" y2="983.9" stroke="#111111" stroke-width="1.6" /><line x1="227.0" y1="342.8" x2="241.0" y2="342.8" stroke="#111111" stroke-width="1.4" /><line x1="227.0" y1="983.9" x2="241.0" y2="983.9" stroke="#111111" stroke-width="1.4" /><text x="29.0" y="668.4" font-family="Arial, sans-serif" font-size="20" fill="#111111">h2 = 508.4 mm</text>
  <line x1="200.0" y1="505.1" x2="200.0" y2="983.9" stroke="#111111" stroke-width="1.6" /><line x1="193.0" y1="505.1" x2="207.0" y2="505.1" stroke="#111111" stroke-width="1.4" /><line x1="193.0" y1="983.9" x2="207.0" y2="983.9" stroke="#111111" stroke-width="1.4" /><text x="-5.0" y="749.5" font-family="Arial, sans-serif" font-size="20" fill="#111111">h3 = 379.7 mm</text>
  <line x1="166.0" y1="618.6" x2="166.0" y2="983.9" stroke="#111111" stroke-width="1.6" /><line x1="159.0" y1="618.6" x2="173.0" y2="618.6" stroke="#111111" stroke-width="1.4" /><line x1="159.0" y1="983.9" x2="173.0" y2="983.9" stroke="#111111" stroke-width="1.4" /><text x="-39.0" y="806.2" font-family="Arial, sans-serif" font-size="20" fill="#111111">h4 = 289.7 mm</text>
  <line x1="104.0" y1="109.6" x2="322.0" y2="109.6" stroke="#666666" stroke-width="1.2" stroke-dasharray="5 4" />
  <line x1="126.0" y1="109.6" x2="126.0" y2="412.2" stroke="#111111" stroke-width="1.6" /><line x1="119.0" y1="109.6" x2="133.0" y2="109.6" stroke="#111111" stroke-width="1.4" /><line x1="119.0" y1="412.2" x2="133.0" y2="412.2" stroke="#111111" stroke-width="1.4" /><text x="-122.0" y="265.9" font-family="Arial, sans-serif" font-size="20" fill="#111111">a_col_end = 240.0 mm</text>

  <text x="604.0" y="598.0" font-family="Arial, sans-serif" font-size="19" fill="#111111">tbw = 10.8 mm</text>
  <text x="604.0" y="422.0" font-family="Arial, sans-serif" font-size="19" fill="#111111">tbf = 17.3 mm (flange thickness)</text>
  <text x="604.0" y="998.0" font-family="Arial, sans-serif" font-size="19" fill="#111111">tp = 25.4 mm</text>
  <text x="604.0" y="1026.0" font-family="Arial, sans-serif" font-size="17" fill="#111111">lc_ep: bolt center to end-plate edge</text>
  <text x="604.0" y="1050.0" font-family="Arial, sans-serif" font-size="17" fill="#111111">lc_cf: bolt center to column-flange edge</text>
  <text x="604.0" y="1074.0" font-family="Arial, sans-serif" font-size="17" fill="#111111">a_col_end: beam flange to column end</text>
  <text x="604.0" y="1098.0" font-family="Arial, sans-serif" font-size="17" fill="#111111">psi = pfi + tfb - tcp</text>

  <text x="36" y="1140" font-family="Arial, sans-serif" font-size="15" fill="#3a3a3a">
    Diagram generated by StructureLab_HFS_CNT for technical audit support.
  </text>
</svg>
