<svg xmlns="http://www.w3.org/2000/svg" width="920" height="1160" viewBox="0 0 920 1160">
  <rect x="0" y="0" width="920" height="1160" fill="#f7f7f7" />
  <text x="36" y="48" font-family="Arial, sans-serif" font-size="30" font-weight="700" fill="#111111">AISC 358 Chapter 6 - BSEEP_4ES Geometry Audit</text>
  <text x="36" y="95" font-family="Arial, sans-serif" font-size="18" fill="#111111">bp = 270.0 mm</text><text x="36" y="125" font-family="Arial, sans-serif" font-size="18" fill="#111111">g = 140.0 mm</text><text x="36" y="155" font-family="Arial, sans-serif" font-size="18" fill="#111111">de = 60.0 mm</text><text x="36" y="185" font-family="Arial, sans-serif" font-size="18" fill="#111111">pb = 95.0 mm</text><text x="36" y="215" font-family="Arial, sans-serif" font-size="18" fill="#111111">pso (geometry.pfo) = 50.0 mm</text><text x="36" y="245" font-family="Arial, sans-serif" font-size="18" fill="#111111">pfi = 50.0 mm</text><text x="36" y="275" font-family="Arial, sans-serif" font-size="18" fill="#111111">tcp = 15.9 mm</text><text x="36" y="305" font-family="Arial, sans-serif" font-size="18" fill="#111111">psi = pfi + tfb - tcp = 51.4 mm</text><text x="36" y="335" font-family="Arial, sans-serif" font-size="18" fill="#111111">lc_end_plate = 50.8 mm</text><text x="36" y="365" font-family="Arial, sans-serif" font-size="18" fill="#111111">lc_column_flange = 50.8 mm</text><text x="36" y="395" font-family="Arial, sans-serif" font-size="18" fill="#111111">column_end_distance = 240.0 mm</text><text x="36" y="425" font-family="Arial, sans-serif" font-size="18" fill="#111111">h1 = 598.4 mm</text><text x="36" y="455" font-family="Arial, sans-serif" font-size="18" fill="#111111">h2 = 503.4 mm</text><text x="36" y="485" font-family="Arial, sans-serif" font-size="18" fill="#111111">h3 = 384.7 mm</text><text x="36" y="515" font-family="Arial, sans-serif" font-size="18" fill="#111111">h4 = 289.7 mm</text>

  <rect x="340.0" y="160.0" width="240.0" height="860.0" fill="#ececec" stroke="#2c2c2c" stroke-width="2.2" />
  <rect x="362.0" y="418.5" width="196.0" height="21.8" fill="#d5d5d5" stroke="#2f2f2f" stroke-width="1.6" />
  <rect x="362.0" y="979.3" width="196.0" height="21.8" fill="#d5d5d5" stroke="#2f2f2f" stroke-width="1.6" />
  <rect x="453.2" y="440.3" width="13.6" height="539.0" fill="#d5d5d5" stroke="#2f2f2f" stroke-width="1.6" />
  <line x1="358.0" y1="990.2" x2="562.0" y2="990.2" stroke="#6a6a6a" stroke-width="1.2" stroke-dasharray="5 4" />
  <circle cx="397.8" cy="235.7" r="8.5" fill="#111111" /><circle cx="522.2" cy="235.7" r="8.5" fill="#111111" /><circle cx="397.8" cy="355.5" r="8.5" fill="#111111" /><circle cx="522.2" cy="355.5" r="8.5" fill="#111111" /><circle cx="397.8" cy="824.5" r="8.5" fill="#111111" /><circle cx="522.2" cy="824.5" r="8.5" fill="#111111" /><circle cx="397.8" cy="944.3" r="8.5" fill="#111111" /><circle cx="522.2" cy="944.3" r="8.5" fill="#111111" />

  <line x1="340.0" y1="96.0" x2="580.0" y2="96.0" stroke="#111111" stroke-width="1.6" /><line x1="340.0" y1="88.0" x2="340.0" y2="104.0" stroke="#111111" stroke-width="1.4" /><line x1="580.0" y1="88.0" x2="580.0" y2="104.0" stroke="#111111" stroke-width="1.4" /><text x="432.0" y="86.0" font-family="Arial, sans-serif" font-size="20" fill="#111111">bp = 270.0 mm</text>
  <line x1="397.8" y1="136.0" x2="522.2" y2="136.0" stroke="#111111" stroke-width="1.6" /><line x1="397.8" y1="128.0" x2="397.8" y2="144.0" stroke="#111111" stroke-width="1.4" /><line x1="522.2" y1="128.0" x2="522.2" y2="144.0" stroke="#111111" stroke-width="1.4" /><text x="432.0" y="126.0" font-family="Arial, sans-serif" font-size="20" fill="#111111">g = 140.0 mm</text>
  <line x1="340.0" y1="211.7" x2="397.8" y2="211.7" stroke="#111111" stroke-width="1.6" /><line x1="340.0" y1="203.7" x2="340.0" y2="219.7" stroke="#111111" stroke-width="1.4" /><line x1="397.8" y1="203.7" x2="397.8" y2="219.7" stroke="#111111" stroke-width="1.4" /><text x="340.9" y="201.7" font-family="Arial, sans-serif" font-size="20" fill="#111111">lc_ep = 50.8 mm</text>
  <line x1="522.2" y1="259.7" x2="580.0" y2="259.7" stroke="#111111" stroke-width="1.6" /><line x1="522.2" y1="251.7" x2="522.2" y2="267.7" stroke="#111111" stroke-width="1.4" /><line x1="580.0" y1="251.7" x2="580.0" y2="267.7" stroke="#111111" stroke-width="1.4" /><text x="523.1" y="249.7" font-family="Arial, sans-serif" font-size="20" fill="#111111">lc_cf = 50.8 mm</text>

  <line x1="652.0" y1="160.0" x2="652.0" y2="235.7" stroke="#111111" stroke-width="1.6" /><line x1="645.0" y1="160.0" x2="659.0" y2="160.0" stroke="#111111" stroke-width="1.4" /><line x1="645.0" y1="235.7" x2="659.0" y2="235.7" stroke="#111111" stroke-width="1.4" /><text x="662.0" y="202.8" font-family="Arial, sans-serif" font-size="20" fill="#111111">de = 60.0 mm</text>
  <line x1="652.0" y1="235.7" x2="652.0" y2="355.5" stroke="#111111" stroke-width="1.6" /><line x1="645.0" y1="235.7" x2="659.0" y2="235.7" stroke="#111111" stroke-width="1.4" /><line x1="645.0" y1="355.5" x2="659.0" y2="355.5" stroke="#111111" stroke-width="1.4" /><text x="662.0" y="300.6" font-family="Arial, sans-serif" font-size="20" fill="#111111">pb = 95.0 mm</text>
  <line x1="652.0" y1="355.5" x2="652.0" y2="418.5" stroke="#111111" stroke-width="1.6" /><line x1="645.0" y1="355.5" x2="659.0" y2="355.5" stroke="#111111" stroke-width="1.4" /><line x1="645.0" y1="418.5" x2="659.0" y2="418.5" stroke="#111111" stroke-width="1.4" /><text x="662.0" y="392.0" font-family="Arial, sans-serif" font-size="20" fill="#111111">pso = 50.0 mm</text>
  <line x1="652.0" y1="440.3" x2="652.0" y2="505.1" stroke="#111111" stroke-width="1.6" /><line x1="645.0" y1="440.3" x2="659.0" y2="440.3" stroke="#111111" stroke-width="1.4" /><line x1="645.0" y1="505.1" x2="659.0" y2="505.1" stroke="#111111" stroke-width="1.4" /><text x="662.0" y="477.7" font-family="Arial, sans-serif" font-size="20" fill="#111111">psi = 51.4 mm</text>
  <line x1="652.0" y1="505.1" x2="652.0" y2="624.9" stroke="#111111" stroke-width="1.6" /><line x1="645.0" y1="505.1" x2="659.0" y2="505.1" stroke="#111111" stroke-width="1.4" /><line x1="645.0" y1="624.9" x2="659.0" y2="624.9" stroke="#111111" stroke-width="1.4" /><text x="662.0" y="570.0" font-family="Arial, sans-serif" font-size="20" fill="#111111">pb = 95.0 mm</text>

  <line x1="268.0" y1="235.7" x2="268.0" y2="990.2" stroke="#111111" stroke-width="1.6" /><line x1="261.0" y1="235.7" x2="275.0" y2="235.7" stroke="#111111" stroke-width="1.4" /><line x1="261.0" y1="990.2" x2="275.0" y2="990.2" stroke="#111111" stroke-width="1.4" /><text x="63.0" y="617.9" font-family="Arial, sans-serif" font-size="20" fill="#111111">h1 = 598.4 mm</text>
  <line x1="234.0" y1="355.5" x2="234.0" y2="990.2" stroke="#111111" stroke-width="1.6" /><line x1="227.0" y1="355.5" x2="241.0" y2="355.5" stroke="#111111" stroke-width="1.4" /><line x1="227.0" y1="990.2" x2="241.0" y2="990.2" stroke="#111111" stroke-width="1.4" /><text x="29.0" y="677.8" font-family="Arial, sans-serif" font-size="20" fill="#111111">h2 = 503.4 mm</text>
  <line x1="200.0" y1="505.1" x2="200.0" y2="990.2" stroke="#111111" stroke-width="1.6" /><line x1="193.0" y1="505.1" x2="207.0" y2="505.1" stroke="#111111" stroke-width="1.4" /><line x1="193.0" y1="990.2" x2="207.0" y2="990.2" stroke="#111111" stroke-width="1.4" /><text x="-5.0" y="752.7" font-family="Arial, sans-serif" font-size="20" fill="#111111">h3 = 384.7 mm</text>
  <line x1="166.0" y1="624.9" x2="166.0" y2="990.2" stroke="#111111" stroke-width="1.6" /><line x1="159.0" y1="624.9" x2="173.0" y2="624.9" stroke="#111111" stroke-width="1.4" /><line x1="159.0" y1="990.2" x2="173.0" y2="990.2" stroke="#111111" stroke-width="1.4" /><text x="-39.0" y="812.6" font-family="Arial, sans-serif" font-size="20" fill="#111111">h4 = 289.7 mm</text>
  <line x1="104.0" y1="115.9" x2="322.0" y2="115.9" stroke="#666666" stroke-width="1.2" stroke-dasharray="5 4" />
  <line x1="126.0" y1="115.9" x2="126.0" y2="418.5" stroke="#111111" stroke-width="1.6" /><line x1="119.0" y1="115.9" x2="133.0" y2="115.9" stroke="#111111" stroke-width="1.4" /><line x1="119.0" y1="418.5" x2="133.0" y2="418.5" stroke="#111111" stroke-width="1.4" /><text x="-122.0" y="272.2" font-family="Arial, sans-serif" font-size="20" fill="#111111">a_col_end = 240.0 mm</text>

  <text x="604.0" y="598.0" font-family="Arial, sans-serif" font-size="19" fill="#111111">tbw = 10.8 mm</text>
  <text x="604.0" y="428.3" font-family="Arial, sans-serif" font-size="19" fill="#111111">tbf = 17.3 mm (flange thickness)</text>
  <text x="604.0" y="998.0" font-family="Arial, sans-serif" font-size="19" fill="#111111">tp = 25.4 mm</text>
  <text x="604.0" y="1026.0" font-family="Arial, sans-serif" font-size="17" fill="#111111">lc_ep: bolt center to end-plate edge</text>
  <text x="604.0" y="1050.0" font-family="Arial, sans-serif" font-size="17" fill="#111111">lc_cf: bolt center to column-flange edge</text>
  <text x="604.0" y="1074.0" font-family="Arial, sans-serif" font-size="17" fill="#111111">a_col_end: beam flange to column end</text>
  <text x="604.0" y="1098.0" font-family="Arial, sans-serif" font-size="17" fill="#111111">psi = pfi + tfb - tcp</text>

  <text x="36" y="1140" font-family="Arial, sans-serif" font-size="15" fill="#3a3a3a">
    Diagram generated by StructureLab_HFS_CNT for technical audit support.
  </text>
</svg>
