<svg xmlns="http://www.w3.org/2000/svg" width="1780" height="1020" viewBox="0 0 1780 1020">
<rect x="0.0" y="0.0" width="1780.0" height="1020.0" fill="#fafafa" stroke="#fafafa" stroke-width="0" />
<rect x="40.0" y="24.0" width="980.0" height="44.0" fill="#e9e9e9" stroke="#222" stroke-width="1.4" />
<text x="56.0" y="54.0" font-family="Arial, sans-serif" font-size="30" font-weight="700" fill="#111">CONEXION VIGA - VIGA A MOMENTO EMPERNADA</text>
<text x="1040.0" y="54.0" font-family="Arial, sans-serif" font-size="30" font-weight="600" fill="#111">Conexion con cubreplacas en alas y alma</text>
<text x="52.0" y="96.0" font-family="Arial, sans-serif" font-size="15" font-weight="400" fill="#333">Imagen generada desde inputs + catalogo; esquema tecnico (no a escala global)</text>
<rect x="520.0" y="130.0" width="1220.0" height="840.0" fill="#ffffff" stroke="#cfcfcf" stroke-width="1.2" />
<text x="540.0" y="164.0" font-family="Arial, sans-serif" font-size="20" font-weight="700" fill="#111">Vista general de la conexion</text>
<rect x="653.0" y="400.0" width="470.0" height="290.0" fill="#efefef" stroke="#222" stroke-width="1.6" />
<rect x="1137.0" y="400.0" width="470.0" height="290.0" fill="#efefef" stroke="#222" stroke-width="1.6" />
<rect x="1122.0" y="455.0" width="16.0" height="180.0" fill="#d8d8d8" stroke="#222" stroke-width="1.6" />
<rect x="773.0" y="420.0" width="700.0" height="20.0" fill="#dddddd" stroke="#222" stroke-width="1.6" />
<rect x="773.0" y="650.0" width="700.0" height="20.0" fill="#dddddd" stroke="#222" stroke-width="1.6" />
<circle cx="823.0" cy="480.0" r="3.6" fill="#111" />
<circle cx="823.0" cy="506.0" r="3.6" fill="#111" />
<circle cx="823.0" cy="532.0" r="3.6" fill="#111" />
<circle cx="823.0" cy="558.0" r="3.6" fill="#111" />
<circle cx="823.0" cy="584.0" r="3.6" fill="#111" />
<circle cx="823.0" cy="610.0" r="3.6" fill="#111" />
<circle cx="1023.0" cy="480.0" r="3.6" fill="#111" />
<circle cx="1023.0" cy="506.0" r="3.6" fill="#111" />
<circle cx="1023.0" cy="532.0" r="3.6" fill="#111" />
<circle cx="1023.0" cy="558.0" r="3.6" fill="#111" />
<circle cx="1023.0" cy="584.0" r="3.6" fill="#111" />
<circle cx="1023.0" cy="610.0" r="3.6" fill="#111" />
<circle cx="1223.0" cy="480.0" r="3.6" fill="#111" />
<circle cx="1223.0" cy="506.0" r="3.6" fill="#111" />
<circle cx="1223.0" cy="532.0" r="3.6" fill="#111" />
<circle cx="1223.0" cy="558.0" r="3.6" fill="#111" />
<circle cx="1223.0" cy="584.0" r="3.6" fill="#111" />
<circle cx="1223.0" cy="610.0" r="3.6" fill="#111" />
<circle cx="1423.0" cy="480.0" r="3.6" fill="#111" />
<circle cx="1423.0" cy="506.0" r="3.6" fill="#111" />
<circle cx="1423.0" cy="532.0" r="3.6" fill="#111" />
<circle cx="1423.0" cy="558.0" r="3.6" fill="#111" />
<circle cx="1423.0" cy="584.0" r="3.6" fill="#111" />
<circle cx="1423.0" cy="610.0" r="3.6" fill="#111" />
<circle cx="803.0" cy="430.0" r="3.5" fill="#111" />
<circle cx="894.4" cy="430.0" r="3.5" fill="#111" />
<circle cx="985.9" cy="430.0" r="3.5" fill="#111" />
<circle cx="1077.3" cy="430.0" r="3.5" fill="#111" />
<circle cx="1168.7" cy="430.0" r="3.5" fill="#111" />
<circle cx="1260.1" cy="430.0" r="3.5" fill="#111" />
<circle cx="1351.6" cy="430.0" r="3.5" fill="#111" />
<circle cx="1443.0" cy="430.0" r="3.5" fill="#111" />
<circle cx="803.0" cy="660.0" r="3.5" fill="#111" />
<circle cx="894.4" cy="660.0" r="3.5" fill="#111" />
<circle cx="985.9" cy="660.0" r="3.5" fill="#111" />
<circle cx="1077.3" cy="660.0" r="3.5" fill="#111" />
<circle cx="1168.7" cy="660.0" r="3.5" fill="#111" />
<circle cx="1260.1" cy="660.0" r="3.5" fill="#111" />
<circle cx="1351.6" cy="660.0" r="3.5" fill="#111" />
<circle cx="1443.0" cy="660.0" r="3.5" fill="#111" />
<line x1="1123.0" y1="370.0" x2="1137.0" y2="370.0" stroke="#222" stroke-width="1.2" /><line x1="1123.0" y1="363.0" x2="1123.0" y2="377.0" stroke="#222" stroke-width="1.2" /><line x1="1137.0" y1="363.0" x2="1137.0" y2="377.0" stroke="#222" stroke-width="1.2" /><text x="1102.0" y="361.0" font-family="Arial, sans-serif" font-size="14" font-weight="400" fill="#111">sep = 10.00 mm</text>
<line x1="1660.0" y1="400.0" x2="1660.0" y2="690.0" stroke="#222" stroke-width="1.2" /><line x1="1654.0" y1="400.0" x2="1666.0" y2="400.0" stroke="#222" stroke-width="1.2" /><line x1="1654.0" y1="690.0" x2="1666.0" y2="690.0" stroke="#222" stroke-width="1.2" /><text x="1668.0" y="549.0" font-family="Arial, sans-serif" font-size="14" font-weight="400" fill="#111">d = 450.00 mm</text>
<text x="1620.0" y="525.0" font-family="Arial, sans-serif" font-size="16" font-weight="700" fill="#111">Perfil: W18X35</text>
<text x="1620.0" y="550.0" font-family="Arial, sans-serif" font-size="15" font-weight="400" fill="#111">tf = 10.80 mm; tw = 7.62 mm</text>
<text x="1620.0" y="575.0" font-family="Arial, sans-serif" font-size="15" font-weight="400" fill="#111">bf = 152.00 mm</text>
<text x="1620.0" y="600.0" font-family="Arial, sans-serif" font-size="15" font-weight="400" fill="#111">T (catalogo) = 394.00 mm</text>
<rect x="48.0" y="130.0" width="430.0" height="840.0" fill="#ffffff" stroke="#cfcfcf" stroke-width="1.2" />
<text x="66.0" y="164.0" font-family="Arial, sans-serif" font-size="20" font-weight="700" fill="#111">Detalle platina 1 (alma)</text>
<rect x="102.0" y="200.0" width="322.0" height="670.0" fill="#f2f2f2" stroke="#222" stroke-width="1.6" />
<circle cx="143.7" cy="247.9" r="3.8" fill="#111" />
<circle cx="143.7" cy="362.7" r="3.8" fill="#111" />
<circle cx="143.7" cy="477.6" r="3.8" fill="#111" />
<circle cx="143.7" cy="592.4" r="3.8" fill="#111" />
<circle cx="143.7" cy="707.3" r="3.8" fill="#111" />
<circle cx="143.7" cy="822.1" r="3.8" fill="#111" />
<circle cx="215.3" cy="247.9" r="3.8" fill="#111" />
<circle cx="215.3" cy="362.7" r="3.8" fill="#111" />
<circle cx="215.3" cy="477.6" r="3.8" fill="#111" />
<circle cx="215.3" cy="592.4" r="3.8" fill="#111" />
<circle cx="215.3" cy="707.3" r="3.8" fill="#111" />
<circle cx="215.3" cy="822.1" r="3.8" fill="#111" />
<circle cx="310.7" cy="247.9" r="3.8" fill="#111" />
<circle cx="310.7" cy="362.7" r="3.8" fill="#111" />
<circle cx="310.7" cy="477.6" r="3.8" fill="#111" />
<circle cx="310.7" cy="592.4" r="3.8" fill="#111" />
<circle cx="310.7" cy="707.3" r="3.8" fill="#111" />
<circle cx="310.7" cy="822.1" r="3.8" fill="#111" />
<circle cx="382.3" cy="247.9" r="3.8" fill="#111" />
<circle cx="382.3" cy="362.7" r="3.8" fill="#111" />
<circle cx="382.3" cy="477.6" r="3.8" fill="#111" />
<circle cx="382.3" cy="592.4" r="3.8" fill="#111" />
<circle cx="382.3" cy="707.3" r="3.8" fill="#111" />
<circle cx="382.3" cy="822.1" r="3.8" fill="#111" />
<line x1="102.0" y1="172.0" x2="424.0" y2="172.0" stroke="#222" stroke-width="1.2" /><line x1="102.0" y1="165.0" x2="102.0" y2="179.0" stroke="#222" stroke-width="1.2" /><line x1="424.0" y1="165.0" x2="424.0" y2="179.0" stroke="#222" stroke-width="1.2" /><text x="235.0" y="163.0" font-family="Arial, sans-serif" font-size="14" font-weight="400" fill="#111">bp1 = 270.00 mm</text>
<line x1="448.0" y1="200.0" x2="448.0" y2="870.0" stroke="#222" stroke-width="1.2" /><line x1="442.0" y1="200.0" x2="454.0" y2="200.0" stroke="#222" stroke-width="1.2" /><line x1="442.0" y1="870.0" x2="454.0" y2="870.0" stroke="#222" stroke-width="1.2" /><text x="456.0" y="539.0" font-family="Arial, sans-serif" font-size="14" font-weight="400" fill="#111">hp1 = 350.00 mm</text>
<text x="102.0" y="902.0" font-family="Arial, sans-serif" font-size="15" font-weight="700" fill="#111">tp1 = 9.50 mm</text>
<text x="102.0" y="926.0" font-family="Arial, sans-serif" font-size="14" font-weight="400" fill="#111">Le1_x1=35.00, Le1_x2=35.00, S1_x=60.00 mm</text>
<text x="102.0" y="948.0" font-family="Arial, sans-serif" font-size="14" font-weight="400" fill="#111">Le1_y1=25.00, Le1_y2=25.00, S1_y=60.00 mm</text>
<text x="102.0" y="970.0" font-family="Arial, sans-serif" font-size="14" font-weight="400" fill="#111">nb1_x=2 (por viga) -&gt; total columnas= 4</text>
<text x="102.0" y="992.0" font-family="Arial, sans-serif" font-size="14" font-weight="400" fill="#111">nb1_y=6 (por viga); pernos grupo 1 totales= 24</text>
<text x="102.0" y="1014.0" font-family="Arial, sans-serif" font-size="14" font-weight="400" fill="#111">db1=15.88 mm; agujero estandar</text>
<text x="66.0" y="770.0" font-family="Arial, sans-serif" font-size="18" font-weight="700" fill="#111">Detalle platina 2 (ala) - patron base</text>
<rect x="102.0" y="786.0" width="322.0" height="144.0" fill="#f7f7f7" stroke="#222" stroke-width="1.6" />
<circle cx="110.5" cy="838.4" r="3.4" fill="#111" />
<circle cx="110.5" cy="890.7" r="3.4" fill="#111" />
<circle cx="212.2" cy="838.4" r="3.4" fill="#111" />
<circle cx="212.2" cy="890.7" r="3.4" fill="#111" />
<circle cx="313.8" cy="838.4" r="3.4" fill="#111" />
<circle cx="313.8" cy="890.7" r="3.4" fill="#111" />
<circle cx="415.5" cy="838.4" r="3.4" fill="#111" />
<circle cx="415.5" cy="890.7" r="3.4" fill="#111" />
<line x1="102.0" y1="770.0" x2="424.0" y2="770.0" stroke="#222" stroke-width="1.2" /><line x1="102.0" y1="763.0" x2="102.0" y2="777.0" stroke="#222" stroke-width="1.2" /><line x1="424.0" y1="763.0" x2="424.0" y2="777.0" stroke="#222" stroke-width="1.2" /><text x="235.0" y="761.0" font-family="Arial, sans-serif" font-size="14" font-weight="400" fill="#111">lp2 = 1900.00 mm</text>
<line x1="444.0" y1="786.0" x2="444.0" y2="930.0" stroke="#222" stroke-width="1.2" /><line x1="438.0" y1="786.0" x2="450.0" y2="786.0" stroke="#222" stroke-width="1.2" /><line x1="438.0" y1="930.0" x2="450.0" y2="930.0" stroke="#222" stroke-width="1.2" /><text x="452.0" y="862.0" font-family="Arial, sans-serif" font-size="14" font-weight="400" fill="#111">bp2 = 110.00 mm</text>
<text x="102.0" y="954.0" font-family="Arial, sans-serif" font-size="13" font-weight="700" fill="#111">tp2 = 19.05 mm; db2=19.05 mm</text>
<text x="102.0" y="972.0" font-family="Arial, sans-serif" font-size="13" font-weight="400" fill="#111">nb2_z=2 (por viga) -&gt; filas equivalentes totales=4</text>
<text x="102.0" y="988.0" font-family="Arial, sans-serif" font-size="12" font-weight="400" fill="#111">Le2_x1=50.00, Le2_x2=50.00, S2_x=600.00 mm</text>
<text x="102.0" y="1004.0" font-family="Arial, sans-serif" font-size="12" font-weight="400" fill="#111">Le2_z1=30.00, Le2_z2=40.00, S2_z1=40.00, S2_z2=90.00 mm</text>
<text x="540.0" y="770.0" font-family="Arial, sans-serif" font-size="15" font-weight="700" fill="#1f1f1f">Valores derivados (sin supuestos extra):</text>
<text x="540.0" y="794.0" font-family="Arial, sans-serif" font-size="14" font-weight="400" fill="#1f1f1f">hp1 = Le1_y1 + Le1_y2 + (nb1_y-1)S1_y = 350.00 mm</text>
<text x="540.0" y="818.0" font-family="Arial, sans-serif" font-size="14" font-weight="400" fill="#1f1f1f">bp1 = 2(Le1_x1 + Le1_x2 + (nb1_x-1)S1_x) + sep = 270.00 mm</text>
<text x="540.0" y="842.0" font-family="Arial, sans-serif" font-size="14" font-weight="400" fill="#1f1f1f">bp2 = Le2_z1 + Le2_z2 + sum(S2_z*) = 110.00 mm</text>
<text x="540.0" y="866.0" font-family="Arial, sans-serif" font-size="14" font-weight="400" fill="#1f1f1f">lp2 = Le2_x1 + Le2_x2 + (nb2_x-1)S2_x = 1900.00 mm</text>
<text x="540.0" y="890.0" font-family="Arial, sans-serif" font-size="14" font-weight="400" fill="#1f1f1f">Nota: el dibujo es esquematico, las cotas reportan el valor numerico exacto.</text>
<text x="48.0" y="1002.0" font-family="Arial, sans-serif" font-size="12" font-weight="400" fill="#444">Fuente: examples/Fully Restrained Moment/case_001_bbmb_splice.json | Catalogo de perfiles/pernos: data/sections.xlsx</text>
</svg>