<svg xmlns="http://www.w3.org/2000/svg" width="920" height="1160" viewBox="0 0 920 1160">
  <rect x="0" y="0" width="920" height="1160" fill="#f7f7f7" />
  <text x="36" y="48" font-family="Arial, sans-serif" font-size="30" font-weight="700" fill="#111111">AISC 358 Chapter 6 - BUEEP_4E Geometry Audit</text>
  <text x="36" y="95" font-family="Arial, sans-serif" font-size="18" fill="#111111">bp = 253.0 mm</text><text x="36" y="125" font-family="Arial, sans-serif" font-size="18" fill="#111111">g = 152.4 mm</text><text x="36" y="155" font-family="Arial, sans-serif" font-size="18" fill="#111111">de = 60.0 mm</text><text x="36" y="185" font-family="Arial, sans-serif" font-size="18" fill="#111111">pb = 95.0 mm</text><text x="36" y="215" font-family="Arial, sans-serif" font-size="18" fill="#111111">pso (geometry.pfo) = 50.0 mm</text><text x="36" y="245" font-family="Arial, sans-serif" font-size="18" fill="#111111">pfi = 50.0 mm</text><text x="36" y="275" font-family="Arial, sans-serif" font-size="18" fill="#111111">tcp = 15.9 mm</text><text x="36" y="305" font-family="Arial, sans-serif" font-size="18" fill="#111111">psi = pfi + tfb - tcp = 51.4 mm</text><text x="36" y="335" font-family="Arial, sans-serif" font-size="18" fill="#111111">lc_end_plate = 50.8 mm</text><text x="36" y="365" font-family="Arial, sans-serif" font-size="18" fill="#111111">lc_column_flange = 50.8 mm</text><text x="36" y="395" font-family="Arial, sans-serif" font-size="18" fill="#111111">column_end_distance = 762.0 mm</text><text x="36" y="425" font-family="Arial, sans-serif" font-size="18" fill="#111111">h1 = 743.4 mm</text><text x="36" y="455" font-family="Arial, sans-serif" font-size="18" fill="#111111">h2 = 648.4 mm</text><text x="36" y="485" font-family="Arial, sans-serif" font-size="18" fill="#111111">h3 = 529.6 mm</text><text x="36" y="515" font-family="Arial, sans-serif" font-size="18" fill="#111111">h4 = 434.6 mm</text>

  <rect x="340.0" y="160.0" width="240.0" height="860.0" fill="#ececec" stroke="#2c2c2c" stroke-width="2.2" />
  <rect x="362.0" y="333.4" width="196.0" height="14.6" fill="#d5d5d5" stroke="#2f2f2f" stroke-width="1.6" />
  <rect x="362.0" y="832.0" width="196.0" height="14.6" fill="#d5d5d5" stroke="#2f2f2f" stroke-width="1.6" />
  <rect x="455.3" y="348.0" width="9.5" height="484.0" fill="#d5d5d5" stroke="#2f2f2f" stroke-width="1.6" />
  <line x1="358.0" y1="839.3" x2="562.0" y2="839.3" stroke="#6a6a6a" stroke-width="1.2" stroke-dasharray="5 4" />
  <circle cx="387.7" cy="210.7" r="8.5" fill="#111111" /><circle cx="532.3" cy="210.7" r="8.5" fill="#111111" /><circle cx="387.7" cy="291.1" r="8.5" fill="#111111" /><circle cx="532.3" cy="291.1" r="8.5" fill="#111111" /><circle cx="387.7" cy="888.9" r="8.5" fill="#111111" /><circle cx="532.3" cy="888.9" r="8.5" fill="#111111" /><circle cx="387.7" cy="969.3" r="8.5" fill="#111111" /><circle cx="532.3" cy="969.3" r="8.5" fill="#111111" />

  <line x1="340.0" y1="96.0" x2="580.0" y2="96.0" stroke="#111111" stroke-width="1.6" /><line x1="340.0" y1="88.0" x2="340.0" y2="104.0" stroke="#111111" stroke-width="1.4" /><line x1="580.0" y1="88.0" x2="580.0" y2="104.0" stroke="#111111" stroke-width="1.4" /><text x="432.0" y="86.0" font-family="Arial, sans-serif" font-size="20" fill="#111111">bp = 253.0 mm</text>
  <line x1="387.7" y1="136.0" x2="532.3" y2="136.0" stroke="#111111" stroke-width="1.6" /><line x1="387.7" y1="128.0" x2="387.7" y2="144.0" stroke="#111111" stroke-width="1.4" /><line x1="532.3" y1="128.0" x2="532.3" y2="144.0" stroke="#111111" stroke-width="1.4" /><text x="432.0" y="126.0" font-family="Arial, sans-serif" font-size="20" fill="#111111">g = 152.4 mm</text>
  <line x1="340.0" y1="186.7" x2="387.7" y2="186.7" stroke="#111111" stroke-width="1.6" /><line x1="340.0" y1="178.7" x2="340.0" y2="194.7" stroke="#111111" stroke-width="1.4" /><line x1="387.7" y1="178.7" x2="387.7" y2="194.7" stroke="#111111" stroke-width="1.4" /><text x="335.9" y="176.7" font-family="Arial, sans-serif" font-size="20" fill="#111111">lc_ep = 50.8 mm</text>
  <line x1="532.3" y1="234.7" x2="580.0" y2="234.7" stroke="#111111" stroke-width="1.6" /><line x1="532.3" y1="226.7" x2="532.3" y2="242.7" stroke="#111111" stroke-width="1.4" /><line x1="580.0" y1="226.7" x2="580.0" y2="242.7" stroke="#111111" stroke-width="1.4" /><text x="528.1" y="224.7" font-family="Arial, sans-serif" font-size="20" fill="#111111">lc_cf = 50.8 mm</text>

  <line x1="652.0" y1="160.0" x2="652.0" y2="210.7" stroke="#111111" stroke-width="1.6" /><line x1="645.0" y1="160.0" x2="659.0" y2="160.0" stroke="#111111" stroke-width="1.4" /><line x1="645.0" y1="210.7" x2="659.0" y2="210.7" stroke="#111111" stroke-width="1.4" /><text x="662.0" y="190.4" font-family="Arial, sans-serif" font-size="20" fill="#111111">de = 60.0 mm</text>
  <line x1="652.0" y1="210.7" x2="652.0" y2="291.1" stroke="#111111" stroke-width="1.6" /><line x1="645.0" y1="210.7" x2="659.0" y2="210.7" stroke="#111111" stroke-width="1.4" /><line x1="645.0" y1="291.1" x2="659.0" y2="291.1" stroke="#111111" stroke-width="1.4" /><text x="662.0" y="255.9" font-family="Arial, sans-serif" font-size="20" fill="#111111">pb = 95.0 mm</text>
  <line x1="652.0" y1="291.1" x2="652.0" y2="333.4" stroke="#111111" stroke-width="1.6" /><line x1="645.0" y1="291.1" x2="659.0" y2="291.1" stroke="#111111" stroke-width="1.4" /><line x1="645.0" y1="333.4" x2="659.0" y2="333.4" stroke="#111111" stroke-width="1.4" /><text x="662.0" y="317.2" font-family="Arial, sans-serif" font-size="20" fill="#111111">pso = 50.0 mm</text>
  <line x1="652.0" y1="348.0" x2="652.0" y2="391.4" stroke="#111111" stroke-width="1.6" /><line x1="645.0" y1="348.0" x2="659.0" y2="348.0" stroke="#111111" stroke-width="1.4" /><line x1="645.0" y1="391.4" x2="659.0" y2="391.4" stroke="#111111" stroke-width="1.4" /><text x="662.0" y="374.7" font-family="Arial, sans-serif" font-size="20" fill="#111111">psi = 51.4 mm</text>
  <line x1="652.0" y1="391.4" x2="652.0" y2="471.8" stroke="#111111" stroke-width="1.6" /><line x1="645.0" y1="391.4" x2="659.0" y2="391.4" stroke="#111111" stroke-width="1.4" /><line x1="645.0" y1="471.8" x2="659.0" y2="471.8" stroke="#111111" stroke-width="1.4" /><text x="662.0" y="436.6" font-family="Arial, sans-serif" font-size="20" fill="#111111">pb = 95.0 mm</text>

  <line x1="268.0" y1="210.7" x2="268.0" y2="839.3" stroke="#111111" stroke-width="1.6" /><line x1="261.0" y1="210.7" x2="275.0" y2="210.7" stroke="#111111" stroke-width="1.4" /><line x1="261.0" y1="839.3" x2="275.0" y2="839.3" stroke="#111111" stroke-width="1.4" /><text x="63.0" y="530.0" font-family="Arial, sans-serif" font-size="20" fill="#111111">h1 = 743.4 mm</text>
  <line x1="234.0" y1="291.1" x2="234.0" y2="839.3" stroke="#111111" stroke-width="1.6" /><line x1="227.0" y1="291.1" x2="241.0" y2="291.1" stroke="#111111" stroke-width="1.4" /><line x1="227.0" y1="839.3" x2="241.0" y2="839.3" stroke="#111111" stroke-width="1.4" /><text x="29.0" y="570.2" font-family="Arial, sans-serif" font-size="20" fill="#111111">h2 = 648.4 mm</text>
  <line x1="200.0" y1="391.4" x2="200.0" y2="839.3" stroke="#111111" stroke-width="1.6" /><line x1="193.0" y1="391.4" x2="207.0" y2="391.4" stroke="#111111" stroke-width="1.4" /><line x1="193.0" y1="839.3" x2="207.0" y2="839.3" stroke="#111111" stroke-width="1.4" /><text x="-5.0" y="620.4" font-family="Arial, sans-serif" font-size="20" fill="#111111">h3 = 529.6 mm</text>
  <line x1="166.0" y1="471.8" x2="166.0" y2="839.3" stroke="#111111" stroke-width="1.6" /><line x1="159.0" y1="471.8" x2="173.0" y2="471.8" stroke="#111111" stroke-width="1.4" /><line x1="159.0" y1="839.3" x2="173.0" y2="839.3" stroke="#111111" stroke-width="1.4" /><text x="-39.0" y="660.6" font-family="Arial, sans-serif" font-size="20" fill="#111111">h4 = 434.6 mm</text>
  <line x1="104.0" y1="26.0" x2="322.0" y2="26.0" stroke="#666666" stroke-width="1.2" stroke-dasharray="5 4" />
  <line x1="126.0" y1="26.0" x2="126.0" y2="333.4" stroke="#111111" stroke-width="1.6" /><line x1="119.0" y1="26.0" x2="133.0" y2="26.0" stroke="#111111" stroke-width="1.4" /><line x1="119.0" y1="333.4" x2="133.0" y2="333.4" stroke="#111111" stroke-width="1.4" /><text x="-122.0" y="184.7" font-family="Arial, sans-serif" font-size="20" fill="#111111">a_col_end = 762.0 mm</text>

  <text x="604.0" y="598.0" font-family="Arial, sans-serif" font-size="19" fill="#111111">tbw = 11.2 mm</text>
  <text x="604.0" y="336.0" font-family="Arial, sans-serif" font-size="19" fill="#111111">tbf = 17.3 mm (flange thickness)</text>
  <text x="604.0" y="998.0" font-family="Arial, sans-serif" font-size="19" fill="#111111">tp = 25.4 mm</text>
  <text x="604.0" y="1026.0" font-family="Arial, sans-serif" font-size="17" fill="#111111">lc_ep: bolt center to end-plate edge</text>
  <text x="604.0" y="1050.0" font-family="Arial, sans-serif" font-size="17" fill="#111111">lc_cf: bolt center to column-flange edge</text>
  <text x="604.0" y="1074.0" font-family="Arial, sans-serif" font-size="17" fill="#111111">a_col_end: beam flange to column end</text>
  <text x="604.0" y="1098.0" font-family="Arial, sans-serif" font-size="17" fill="#111111">psi = pfi + tfb - tcp</text>

  <text x="36" y="1140" font-family="Arial, sans-serif" font-size="15" fill="#3a3a3a">
    Diagram generated by StructureLab_HFS_CNT for technical audit support.
  </text>
</svg>
